<svg xmlns="http://www.w3.org/2000/svg" xmlns:xlink="http://www.w3.org/1999/xlink" width="301" height="271" viewBox="0 0 301 271">
  <defs>
    <clipPath id="clip-path">
      <rect id="Rectangle_5465" data-name="Rectangle 5465" width="301" height="271" fill="#fff"/>
    </clipPath>
  </defs>
  <g id="Illus" clip-path="url(#clip-path)">
    <path id="Path_82604" data-name="Path 82604" d="M109.343,66.643c5.074-4.369,22.027-9.889,29.061-10a28.384,28.384,0,0,1,29.409,28.517c0,28.632-30.215,56.8-37.943,84.4l-4.613,1.725" transform="translate(20.745 10.744)" fill="#373a47"/>
    <path id="Path_82605" data-name="Path 82605" d="M127.41,170.494C116.684,141.863,98,120.589,98,90.922A30.341,30.341,0,0,1,127.41,60.8a28.384,28.384,0,0,1,29.408,28.517C156.817,117.944,135.251,143.012,127.41,170.494Z" transform="translate(18.593 11.532)" fill="#fff"/>
    <path id="Path_82606" data-name="Path 82606" d="M127.559,170.66c.114,0,.46-.69.922-2.186a21.563,21.563,0,0,1,1.037-2.759c.462-1.035.923-2.3,1.5-3.68,2.306-5.635,6-13.453,11.07-23.228,2.422-4.829,5.19-10.233,7.843-16.212a113.755,113.755,0,0,0,6.689-19.778,23.478,23.478,0,0,0,.577-2.76c.115-.92.231-1.84.346-2.875a21.793,21.793,0,0,0,.345-2.875c0-.92.115-1.955.115-2.875a29.542,29.542,0,0,0-1.73-12.074,28.66,28.66,0,0,0-6.8-10.694A29.324,29.324,0,0,0,138.4,61.651,30.432,30.432,0,0,0,127.9,59.926,33.365,33.365,0,0,0,117.409,62,31.32,31.32,0,0,0,99.419,79.7a30.925,30.925,0,0,0-2.191,11.959c.115,1.955.115,3.91.346,5.749s.346,3.794.692,5.634a90.415,90.415,0,0,0,6,20.008c2.536,5.98,5.19,11.384,7.726,16.329,5.074,9.658,9.111,17.478,11.649,23,.691,1.38,1.153,2.529,1.73,3.68.462,1.035.807,1.955,1.153,2.645a15.2,15.2,0,0,0,1.039,1.955c.114,0-.115-.805-.692-2.3a21.51,21.51,0,0,0-1.037-2.76c-.462-1.035-.923-2.3-1.5-3.68-2.306-5.635-6.227-13.568-11.07-23.342-2.422-4.944-5.075-10.234-7.5-16.214a90.955,90.955,0,0,1-5.651-19.663c-.346-1.725-.461-3.565-.692-5.4-.115-1.84-.115-3.68-.231-5.634a30.863,30.863,0,0,1,2.075-11.154A29.58,29.58,0,0,1,118.1,64.065a28.364,28.364,0,0,1,9.687-1.84,27.922,27.922,0,0,1,20.067,8.049,28.471,28.471,0,0,1,6.344,9.889,27.077,27.077,0,0,1,1.614,11.269c0,.92-.115,1.84-.115,2.875a22.54,22.54,0,0,1-.346,2.76l-.346,2.76a17.809,17.809,0,0,1-.577,2.645,104.983,104.983,0,0,1-6.342,19.548c-2.538,5.98-5.19,11.269-7.612,16.214a244.373,244.373,0,0,0-10.495,23.573l-1.268,3.794c-.346,1.15-.577,2.07-.808,2.874C127.673,169.854,127.559,170.66,127.559,170.66Z" transform="translate(18.444 11.367)" fill="#1b1b1b"/>
    <path id="Path_82607" data-name="Path 82607" d="M115.59,81.342a15.34,15.34,0,0,0-3.921,10,12.721,12.721,0,0,0,13.262,12.764,13.7,13.7,0,0,0,13.263-13.569c0-7.244-5.882-14.029-13.263-13.8a10.586,10.586,0,0,0-4.959,1.265" transform="translate(21.186 14.559)" fill="#fff"/>
    <path id="Path_82608" data-name="Path 82608" d="M120.008,78.2c.115.23,1.039-.23,2.768-.46a11.764,11.764,0,0,1,7.035,1.035,12.943,12.943,0,0,1,6.689,8.049,11.694,11.694,0,0,1,.346,6.324,12.5,12.5,0,0,1-3.113,5.979,15.878,15.878,0,0,1-2.076,1.84,17.831,17.831,0,0,1-2.538,1.38,12.213,12.213,0,0,1-6.689.69,12.868,12.868,0,0,1-5.651-2.645,11.852,11.852,0,0,1-3.344-4.6,12.342,12.342,0,0,1-.922-4.829,14.684,14.684,0,0,1,1.844-7.014c.808-1.495,1.385-2.3,1.269-2.53-.115-.115-.923.46-2.076,1.955A14.777,14.777,0,0,0,110.9,90.85a14.2,14.2,0,0,0,.808,5.635,13.58,13.58,0,0,0,10.264,8.624,14.721,14.721,0,0,0,7.958-.8,10.23,10.23,0,0,0,2.883-1.61,23.036,23.036,0,0,0,2.538-2.185,14.958,14.958,0,0,0,3.575-7.129,13.875,13.875,0,0,0-.577-7.244,14.3,14.3,0,0,0-7.958-8.854,11.459,11.459,0,0,0-7.957-.46C120.816,77.4,120.008,77.971,120.008,78.2Z" transform="translate(21.034 14.479)" fill="#1b1b1b"/>
    <path id="Path_82609" data-name="Path 82609" d="M129.411,102.892a12.088,12.088,0,1,0-15.935-7.1A12.3,12.3,0,0,0,129.411,102.892Z" transform="translate(21.397 15.065)" fill="#d3d3d3"/>
    <path id="Path_82610" data-name="Path 82610" d="M128.293,85.08c-1.268-.8-3.229,1.38-5.536,4.255l-.346.46-.346.46c-2.19,2.875-3.92,5.174-2.883,6.324.922,1.035,3.691-.46,6.342-3.565l.346-.46.346-.575C128.524,88.759,129.446,85.655,128.293,85.08Z" transform="translate(22.553 16.11)" fill="#1b1b1b"/>
    <path id="Path_82611" data-name="Path 82611" d="M129.309,95.057c.923-1.15-.922-3.45-3.8-5.864-.115-.115-.346-.23-.462-.345a1.592,1.592,0,0,0-.462-.345c-3-2.3-5.651-3.565-6.573-2.415-.923,1.035.922,3.45,3.806,5.864.115.115.345.23.46.345a1.593,1.593,0,0,0,.462.345C125.734,94.827,128.5,96.092,129.309,95.057Z" transform="translate(22.343 16.251)" fill="#1b1b1b"/>
    <path id="Path_82612" data-name="Path 82612" d="M214.244,118.4a1.32,1.32,0,0,0,1.153.115,3.718,3.718,0,0,1,1.614-.115,1.193,1.193,0,0,1,.922.69v.576a8.569,8.569,0,0,1-.46,1.265c-.115.23-.231.345-.346.575s-.231.345-.346.575l-.115.231-.115.114-.115-.114c-.115-.231-.346-.345-.46-.576-.231-.345-.462-.575-.577-.8a2.2,2.2,0,0,1-.462-1.38c-.346-.46-.462-.92-.691-1.15s-.692-.23-1.269.231a3.141,3.141,0,0,0-.922,2.874,4.688,4.688,0,0,0,.576,2.07,3.436,3.436,0,0,1,.462.92l.115.23.231.345a3.051,3.051,0,0,0,.577.69,3.466,3.466,0,0,0,3.229,1.265,3.924,3.924,0,0,0,1.73-.8c.231-.231.577-.46.807-.69l.346-.345.231-.23a6.436,6.436,0,0,0,.692-.921c.231-.345.345-.69.576-1.035a8.22,8.22,0,0,0,.808-2.874,5.379,5.379,0,0,0-.808-3.219,4.433,4.433,0,0,0-4.843-1.725,3.947,3.947,0,0,0-2.307,1.84C213.9,117.713,213.9,118.173,214.244,118.4Z" transform="translate(40.221 21.818)" fill="#1b1b1b"/>
    <path id="Path_82613" data-name="Path 82613" d="M41.243,64.4a1.326,1.326,0,0,0,1.153.115,3.713,3.713,0,0,1,1.615-.115,1.2,1.2,0,0,1,.923.69v.575a8.706,8.706,0,0,1-.461,1.265c-.115.23-.231.345-.346.575s-.231.345-.346.575l-.115.23-.115.115-.115-.115c-.115-.23-.346-.345-.461-.575-.231-.345-.461-.575-.577-.8a2.206,2.206,0,0,1-.461-1.38c-.346-.46-.346-.92-.692-1.15-.231-.23-.692-.23-1.268.23a3.141,3.141,0,0,0-.923,2.875,4.676,4.676,0,0,0,.577,2.07,3.435,3.435,0,0,1,.461.92l.115.23.231.345a3.049,3.049,0,0,0,.577.69,3.468,3.468,0,0,0,3.229,1.265,3.927,3.927,0,0,0,1.73-.8c.231-.23.577-.46.807-.69l.346-.345.231-.23a6.392,6.392,0,0,0,.692-.92c.231-.345.346-.69.577-1.035a8.228,8.228,0,0,0,.807-2.875,5.384,5.384,0,0,0-.807-3.22,4.432,4.432,0,0,0-4.844-1.725,3.945,3.945,0,0,0-2.307,1.84C40.9,63.713,41.013,64.173,41.243,64.4Z" transform="translate(7.399 11.573)" fill="#a8a8a8"/>
    <path id="Path_82614" data-name="Path 82614" d="M196.36,88.688a1.328,1.328,0,0,0,1.154.115,3.709,3.709,0,0,1,1.614-.115,1.2,1.2,0,0,1,.922.69v.575a8.716,8.716,0,0,1-.462,1.265c-.115.23-.23.345-.345.575s-.231.345-.346.575l-.115.23-.115.115-.115-.115c-.115-.23-.346-.345-.462-.575-.231-.345-.46-.575-.576-.8a2.2,2.2,0,0,1-.462-1.38c-.346-.46-.346-.92-.692-1.15-.231-.23-.691-.23-1.268.23a3.143,3.143,0,0,0-.923,2.875,4.673,4.673,0,0,0,.577,2.07,3.44,3.44,0,0,1,.462.92l.115.23.231.345a3.044,3.044,0,0,0,.576.69,3.47,3.47,0,0,0,3.23,1.265,3.931,3.931,0,0,0,1.73-.8c.23-.23.576-.46.807-.69l.346-.345.231-.23a6.29,6.29,0,0,0,.691-.92c.231-.345.346-.69.577-1.035a8.224,8.224,0,0,0,.808-2.875,5.381,5.381,0,0,0-.808-3.22,4.431,4.431,0,0,0-4.843-1.725,3.948,3.948,0,0,0-2.307,1.84C196.014,88,196.129,88.459,196.36,88.688Z" transform="translate(36.828 16.181)" fill="#a8a8a8"/>
    <path id="Path_82615" data-name="Path 82615" d="M238.452,65.681c-1.039-1.035-3.344.345-5.882,2.76l-.346.345-.346.345c-2.306,2.53-3.8,4.715-2.767,5.864.923.92,3.344-.345,5.882-2.76l.346-.345.345-.345C238.106,69.016,239.49,66.6,238.452,65.681Z" transform="translate(43.404 12.395)" fill="#a8a8a8"/>
    <path id="Path_82616" data-name="Path 82616" d="M122.133,115.06c-1.384-.575-2.191-.23-2.767.69v.114a.113.113,0,0,1-.115.115c-.346.92,0,1.839,1.384,2.415a2.075,2.075,0,0,0,2.768-.69v-.115a.113.113,0,0,1,.114-.115A2.01,2.01,0,0,0,122.133,115.06Z" transform="translate(22.601 21.776)" fill="#a8a8a8"/>
    <path id="Path_82617" data-name="Path 82617" d="M59.072,105.775c-1.038,1.035-1.038,1.955-.461,2.645l.115.114.115.115c.692.575,1.615.575,2.652-.46.923-.92,1.038-1.955.461-2.645l-.115-.114-.115-.115C61.032,104.74,60.11,104.74,59.072,105.775Z" transform="translate(11.046 19.907)" fill="#a8a8a8"/>
    <path id="Path_82618" data-name="Path 82618" d="M70.438,10.536c-.692,0-1.268.575-1.5,1.495a6.68,6.68,0,0,0,.346,3.565l.115.345.115.345a7.47,7.47,0,0,0,2.307,2.875,1.592,1.592,0,0,0,2.076.115c1.038-.92.461-2.645-.346-4.715l-.115-.345V14.1C72.514,12.146,71.822,10.421,70.438,10.536Z" transform="translate(13.057 1.998)" fill="#a8a8a8"/>
    <path id="Path_82619" data-name="Path 82619" d="M137.664,28.218c-1.037-1.035-2.422-.575-3.575.46-.115,0-.115.115-.115.23-.115,0-.115.115-.231.115-1.037,1.15-1.5,2.53-.46,3.565.922.92,2.306.575,3.575-.46a.4.4,0,0,0,.114-.23c.115,0,.115-.115.231-.115C138.241,30.518,138.7,29.138,137.664,28.218Z" transform="translate(25.176 5.243)" fill="#a8a8a8"/>
    <path id="Path_82620" data-name="Path 82620" d="M253.223,111.056c-1.037-1.034-2.306-.689-3.344.231l-.115.114-.115.115c-.922,1.035-1.268,2.3-.23,3.335a2.388,2.388,0,0,0,3.344-.23l.115-.115.115-.115C253.916,113.241,254.146,111.977,253.223,111.056Z" transform="translate(47.2 20.95)" fill="#a8a8a8"/>
    <path id="Path_82621" data-name="Path 82621" d="M175.847,27.862c-1.037-1.035-1.614-1.38-1.845-1.38-.115.23.231.69,1.384,1.84a4.863,4.863,0,0,0,1.845,1.38C177.23,29.472,176.884,28.9,175.847,27.862Z" transform="translate(33.008 5.024)" fill="#a8a8a8"/>
    <path id="Path_82622" data-name="Path 82622" d="M192.874.448c-1.037-1.035-3.114.115-5.19,2.07l-.346.345-.345.345c-1.961,2.07-3.115,4.025-2.076,5.174.922.92,3-.115,5.19-2.07l.346-.345.345-.345C192.759,3.438,193.8,1.368,192.874.448Z" transform="translate(35.009 0.011)" fill="#a8a8a8"/>
    <path id="Path_82623" data-name="Path 82623" d="M127.435,133.822c0-.231-1.961.114-5.536.8-1.845.345-4.036.805-6.689,1.38-2.537.575-5.536,1.15-8.88,1.839-3.69-1.149-7.727-2.414-12.34-3.794-4.844-1.494-10.264-3.105-16.03-4.829-9.687,9.544-21.1,20.927-34.021,33.576C30.677,175.908,15.915,190.512,0,206.38c13.262,6.9,27.1,14.028,41.517,21.5,20.989-4.6,43.247-9.429,66.427-14.488,3.921,2.3,8.073,4.715,12.224,7.13,7.035,4.024,13.839,8.048,20.758,11.958l9.457,5.52,14.07-5.635c12.34-4.944,24.333-9.775,36.1-14.374q33.04,11.73,62.852,22.309c-6.342-36.337-11.878-68.764-16.606-95.9-14.531-4.37-27.448-8.165-38.635-11.5-7.726,1.84-14.645,3.45-20.643,4.83-2.883.69-5.651,1.38-8.072,1.955s-4.5,1.149-6.459,1.61c-1.73-.575-3.344-1.035-4.728-1.38a35.706,35.706,0,0,1-3.575-1.035c-1.961-.459-2.883-.69-3-.575a9.88,9.88,0,0,0,2.767,1.265q1.385.518,3.46,1.38c1.384.575,3.114,1.15,4.959,1.839,4.037-.8,9.111-1.839,15.108-2.989,5.767-1.15,12.571-2.645,20.066-4.14,10.38,3.219,22.259,7.015,35.751,11.269,4.037,24.722,8.88,54.16,14.3,87.16-18.221-6.554-37.6-13.453-57.778-20.7-12.224,4.83-24.8,9.889-37.712,14.949l-11.994,4.829L143,228.8c-6.919-4.025-13.723-7.934-20.758-12.075-4.613-2.645-9.226-5.4-13.724-7.934-23.18,5.175-45.554,10.12-66.543,14.719-12.34-6.325-24.218-12.42-35.52-18.168,14.416-14.6,27.794-28.057,39.672-40.246,12.225-12.534,23.181-23.573,32.407-33,10.956,2.99,20.182,5.519,27.563,7.589,3.46-.92,6.574-1.725,9.226-2.415,2.537-.69,4.843-1.265,6.573-1.839A32.818,32.818,0,0,0,127.435,133.822Z" transform="translate(0 24.517)" fill="#1b1b1b"/>
    <path id="Path_82624" data-name="Path 82624" d="M35.2,224.162c1.269.92,14.646-16.214,31.484-38.752.807-1.149,1.73-2.3,2.537-3.335.807-1.149,1.615-2.184,2.537-3.334,16.722-22.768,29.177-40.477,27.909-41.4-1.153-.8-14.646,16.214-31.484,38.752-.807,1.149-1.73,2.3-2.537,3.334-.807,1.15-1.615,2.186-2.537,3.335C46.386,205.533,34.046,223.356,35.2,224.162Z" transform="translate(6.664 26.052)" fill="#1b1b1b"/>
    <path id="Path_82625" data-name="Path 82625" d="M91.056,208.694c1.384.575,7.15-12.648,13.954-30.012.346-.92.692-1.725,1.037-2.645.346-.8.692-1.724,1.039-2.645,6.689-17.478,11.3-31.047,9.8-31.506-1.268-.46-7.15,12.649-13.954,30.012-.346.92-.691,1.725-1.037,2.645-.346.8-.692,1.725-1.038,2.645C94.285,194.666,89.788,208.234,91.056,208.694Z" transform="translate(17.235 26.917)" fill="#1b1b1b"/>
    <path id="Path_82626" data-name="Path 82626" d="M126.539,233.63c1.5.345,6.573-18.282,12.455-42.544.346-1.266.577-2.415.922-3.68.346-1.15.577-2.415.923-3.68,5.767-24.377,9.687-43.236,8.188-43.581-1.384-.345-6.573,18.284-12.455,42.546-.345,1.265-.576,2.415-.922,3.68-.346,1.149-.577,2.415-.923,3.68C129.077,214.312,125.271,233.286,126.539,233.63Z" transform="translate(23.961 26.588)" fill="#1b1b1b"/>
    <path id="Path_82627" data-name="Path 82627" d="M18.658,201.815l-4.844,5.519a11.113,11.113,0,0,0,7.957,18.4l228,7.934c10.841.345,15.8-13.453,7.15-19.893l1.73,10.465-60.315-21.5L148.4,222.627l-42.209-24.492-66.428,14.6Z" transform="translate(2.1 37.591)" fill="#373a47"/>
    <path id="Path_82628" data-name="Path 82628" d="M7.852,191.827c-.923-1.149-1.845-1.265-2.422-.8l-.115.114-.115.115c-.577.575-.577,1.5.461,2.529.923,1.035,1.845,1.15,2.422.805l.115-.115.115-.114C8.774,193.782,8.774,192.863,7.852,191.827Z" transform="translate(0.913 36.194)" fill="#1b1b1b"/>
    <path id="Path_82629" data-name="Path 82629" d="M16.374,186.318c-.692-1.38-2.076-1.265-3.46-.459l-.231.114-.231.115c-1.269.92-1.961,2.07-1.153,3.219s2.191,1.15,3.46.46l.231-.115.231-.115C16.374,188.733,17.066,187.583,16.374,186.318Z" transform="translate(2.078 35.149)" fill="#1b1b1b"/>
    <path id="Path_82630" data-name="Path 82630" d="M25.33,182.391c-.461-1.379-1.845-1.494-3.344-1.034l-.231.114-.231.115c-1.384.69-2.307,1.725-1.615,3.1.577,1.266,1.961,1.5,3.344,1.035l.231-.114.231-.115C24.984,184.806,25.791,183.657,25.33,182.391Z" transform="translate(3.733 34.361)" fill="#1b1b1b"/>
    <path id="Path_82631" data-name="Path 82631" d="M34.751,179.53c-.346-1.5-1.615-1.725-3.229-1.38l-.231.115H31.06c-1.5.459-2.422,1.379-1.96,2.874.461,1.265,1.73,1.725,3.229,1.38l.231-.115h.231C34.174,181.944,35.1,180.911,34.751,179.53Z" transform="translate(5.498 33.773)" fill="#1b1b1b"/>
    <path id="Path_82632" data-name="Path 82632" d="M44.351,177.633c-.231-1.5-1.5-1.84-3-1.725h-.461c-1.5.345-2.537,1.15-2.307,2.645.231,1.38,1.5,1.839,3,1.725h.461C43.544,179.933,44.582,179.013,44.351,177.633Z" transform="translate(7.314 33.37)" fill="#1b1b1b"/>
    <path id="Path_82633" data-name="Path 82633" d="M54.142,176.507c-.115-1.494-1.384-1.955-2.883-1.955H50.8c-1.5.23-2.652.92-2.422,2.415.115,1.379,1.384,1.955,2.883,1.955h.461C53.1,178.691,54.257,177.887,54.142,176.507Z" transform="translate(9.172 33.117)" fill="#1b1b1b"/>
    <path id="Path_82634" data-name="Path 82634" d="M63.946,176.156c0-1.494-1.153-2.069-2.768-2.184h-.461c-1.5.115-2.652.8-2.652,2.3.115,1.38,1.268,2.07,2.768,2.184h.461C62.792,178.226,63.946,177.536,63.946,176.156Z" transform="translate(11.016 33.007)" fill="#1b1b1b"/>
    <path id="Path_82635" data-name="Path 82635" d="M73.718,176.465c.115-1.494-1.038-2.184-2.537-2.3h-.461c-1.5,0-2.768.576-2.768,2.07,0,1.38,1.038,2.184,2.537,2.3h.461C72.449,178.419,73.6,177.845,73.718,176.465Z" transform="translate(12.892 33.043)" fill="#1b1b1b"/>
    <path id="Path_82636" data-name="Path 82636" d="M83.51,177.567c.231-1.494-.807-2.3-2.307-2.529h-.461c-1.5-.115-2.768.345-3,1.84-.115,1.379.923,2.184,2.422,2.529h.461C82.01,179.408,83.279,178.947,83.51,177.567Z" transform="translate(14.748 33.206)" fill="#1b1b1b"/>
    <path id="Path_82637" data-name="Path 82637" d="M93.11,179.429c.231-1.494-.692-2.3-2.191-2.645h-.461c-1.5-.23-2.768.23-3.114,1.61-.231,1.38.692,2.3,2.191,2.645H90C91.611,181.268,92.88,180.809,93.11,179.429Z" transform="translate(16.564 33.529)" fill="#1b1b1b"/>
    <path id="Path_82638" data-name="Path 82638" d="M102.8,180.757c.115-1.5-1.039-2.184-2.422-2.529H99.92c-1.5-.115-2.652.459-2.883,1.955-.231,1.38.923,2.184,2.422,2.529h.461C101.534,182.711,102.688,182.137,102.8,180.757Z" transform="translate(18.404 33.811)" fill="#1b1b1b"/>
    <path id="Path_82639" data-name="Path 82639" d="M112.607,180.046c-.346-1.494-1.614-1.725-3-1.725h-.462c-1.384.231-2.422.921-2.422,2.415.115,1.38,1.269,2.07,3,1.955h.46C111.915,182.346,112.953,181.311,112.607,180.046Z" transform="translate(20.248 33.832)" fill="#1b1b1b"/>
    <path id="Path_82640" data-name="Path 82640" d="M121.34,175.756c-.922-1.149-2.076-1.035-3.344-.46l-.231.115-.231.115c-1.153.8-1.961,1.725-1.268,3.1.577,1.265,1.961,1.38,3.46.69l.231-.114.231-.115C121.571,178.285,122.148,176.906,121.34,175.756Z" transform="translate(22.01 33.177)" fill="#1b1b1b"/>
    <path id="Path_82641" data-name="Path 82641" d="M127.206,168.1c-1.384-.459-2.307.231-3.114,1.266l-.115.23-.115.115c-.577,1.149-.808,2.414.346,3.334,1.037.921,2.421.345,3.46-1.034l.115-.231.115-.23C128.705,170.054,128.475,168.56,127.206,168.1Z" transform="translate(23.409 31.865)" fill="#1b1b1b"/>
    <path id="Path_82642" data-name="Path 82642" d="M126.273,158.758a2.672,2.672,0,0,0-.922,1.5,3.268,3.268,0,0,0,0,1.494v.231a2.588,2.588,0,0,0,2.421,2.184c1.385,0,2.191-1.265,1.845-3.219v-.115l-.114-.23a3.859,3.859,0,0,0-1.5-1.955A1.4,1.4,0,0,0,126.273,158.758Z" transform="translate(23.766 30.052)" fill="#1b1b1b"/>
    <path id="Path_82643" data-name="Path 82643" d="M118.205,161.119a2.536,2.536,0,0,0,3.113-.459l.115-.115.115-.115a5.094,5.094,0,0,0,.922-1.265,2.216,2.216,0,0,0,0-1.725,1.6,1.6,0,0,0-1.384-1.149,3.089,3.089,0,0,0-2.422.805l-.23.23-.231.23C117.051,158.819,117.051,160.544,118.205,161.119Z" transform="translate(22.262 29.646)" fill="#1b1b1b"/>
    <path id="Path_82644" data-name="Path 82644" d="M120.71,170.037c1.039-1.035.692-2.184.115-3.335l-.115-.114-.115-.115a2.717,2.717,0,0,0-3-1.38,1.766,1.766,0,0,0-1.268,1.265,3.461,3.461,0,0,0,.462,2.3l.115.231.114.23C118.289,170.612,119.788,170.957,120.71,170.037Z" transform="translate(22.062 31.307)" fill="#1b1b1b"/>
    <path id="Path_82645" data-name="Path 82645" d="M129.231,174.852c.577-1.38-.231-2.415-1.5-3.105l-.231-.114-.231-.115c-1.268-.575-2.538-.575-3.344.805-.692,1.149,0,2.414,1.384,3.219.115,0,.115.115.231.115l.231.114C127.386,176.232,128.77,176.116,129.231,174.852Z" transform="translate(23.46 32.472)" fill="#1b1b1b"/>
    <path id="Path_82646" data-name="Path 82646" d="M138.881,176.253c-.115-1.494-1.268-1.955-2.536-2.184h-.462c-1.384,0-2.538.345-2.883,1.839-.231,1.38.807,2.3,2.536,2.529H136C137.728,178.438,139,177.633,138.881,176.253Z" transform="translate(25.227 33.025)" fill="#1b1b1b"/>
    <path id="Path_82647" data-name="Path 82647" d="M147.328,171.861c-1.039-1.149-2.307-.69-3.345,0l-.114.115-.115.114c-.923.921-1.616,1.84-.923,3.221a2.035,2.035,0,0,0,1.5,1.035,3.5,3.5,0,0,0,2.191-.69l.231-.115.231-.115C147.9,174.16,148.25,172.78,147.328,171.861Z" transform="translate(27.045 32.473)" fill="#1b1b1b"/>
    <path id="Path_82648" data-name="Path 82648" d="M155.615,166.774c-.231-1.5-1.73-1.839-3.46-1.265l-.231.114-.231.115a3.607,3.607,0,0,0-1.614,1.61,1.821,1.821,0,0,0,.231,1.84,2.359,2.359,0,0,0,1.5.92,4.524,4.524,0,0,0,1.73-.23l.115-.115.231-.115C154.923,168.958,155.846,168.154,155.615,166.774Z" transform="translate(28.445 31.351)" fill="#1b1b1b"/>
    <path id="Path_82649" data-name="Path 82649" d="M165.193,168.513c.576-1.38-.346-2.415-1.845-2.99l-.231-.115-.231-.114c-1.614-.345-3,0-3.229,1.494-.231,1.38.691,2.184,1.961,2.76h.231l.231.114A2.426,2.426,0,0,0,165.193,168.513Z" transform="translate(30.284 31.337)" fill="#1b1b1b"/>
    <path id="Path_82650" data-name="Path 82650" d="M173.673,173.462c.808-1.265.115-2.414-1.037-3.335l-.231-.114-.231-.115c-1.384-.69-2.768-.8-3.46.46-.692,1.149-.115,2.414,1.153,3.219l.231.115.231.114A2.272,2.272,0,0,0,173.673,173.462Z" transform="translate(31.953 32.137)" fill="#1b1b1b"/>
    <path id="Path_82651" data-name="Path 82651" d="M182.464,177.72c.462-1.5-.346-2.3-1.614-2.99l-.231-.115-.231-.115c-1.384-.459-2.652-.459-3.344.805s.115,2.415,1.5,3.219l.231.115.231.114C180.618,179.33,182,179.1,182.464,177.72Z" transform="translate(33.541 33.053)" fill="#1b1b1b"/>
    <path id="Path_82652" data-name="Path 82652" d="M192.076,177.175a2.77,2.77,0,0,0-3-1.265h-.46c-1.269.345-2.307.92-2.307,2.415,0,1.38,1.268,2.184,3.113,1.955h.462a3.1,3.1,0,0,0,1.961-1.265A1.8,1.8,0,0,0,192.076,177.175Z" transform="translate(35.347 33.368)" fill="#1b1b1b"/>
    <path id="Path_82653" data-name="Path 82653" d="M196.489,168.856c-1.5-.231-2.306.689-2.767,1.955v.23l-.115.23c-.346,1.265-.231,2.415,1.037,3.105,1.154.69,2.538-.231,3.115-1.84l.114-.23.115-.23C198.334,170.465,197.758,169.085,196.489,168.856Z" transform="translate(36.7 32.029)" fill="#1b1b1b"/>
    <path id="Path_82654" data-name="Path 82654" d="M197.358,159.089c-1.5-.115-2.191,1.035-2.422,2.529v.46c0,1.494.462,2.759,1.961,2.874,1.384.115,2.191-1.035,2.422-2.529v-.46C199.433,160.469,198.742,159.2,197.358,159.089Z" transform="translate(36.984 30.181)" fill="#1b1b1b"/>
    <path id="Path_82655" data-name="Path 82655" d="M199.657,149.653c-1.268-.69-2.536.23-3.114,1.839l-.115.231-.115.23c-.346,1.61,0,2.99,1.5,3.219,1.384.231,2.307-.69,2.768-1.955v-.23l.115-.23C201.041,151.492,200.925,150.343,199.657,149.653Z" transform="translate(37.222 28.349)" fill="#1b1b1b"/>
    <path id="Path_82656" data-name="Path 82656" d="M205.323,145.756c-.23-1.494-1.037-1.955-1.959-1.839h-.231c-.923.344-1.269,1.265-.577,2.645.692,1.265,1.384,1.61,1.961,1.61h.231C205.093,147.94,205.438,147.136,205.323,145.756Z" transform="translate(38.36 27.301)" fill="#1b1b1b"/>
  </g>
</svg>
